# xmcd CD database file
#
# Track frame offsets:
#	150
#	11710
#	26720
#	45322
#	62817
#	72745
#	83235
#	85787
#	100110
#	111700
#	129867
#	153295
#	159000
#	185792
#
# Disc length: 4102 seconds
#
# Revision: 0
# Processed by: cddbd v1.5PL3 Copyright (c) Steve Scherf et al.
# Submitted via: CDex 1.51
#
DISCID=b310040e
DTITLE=Over It - Timing Is Everything
DYEAR=1900
DGENRE=Rock
TTITLE0=Limiter
TTITLE1=Wrong Way
TTITLE2=Serial Kisser
TTITLE3=Fall
TTITLE4=Nothing Serious
TTITLE5=Things You Never Knew Existed
TTITLE6=Thrill Seeker
TTITLE7=Worry Bomb
TTITLE8=Cross-Tolerance
TTITLE9=Chasing A Constellation
TTITLE10=Crush
TTITLE11=Give Away
TTITLE12=unknown
TTITLE13=unknown
EXTD=
EXTT0=
EXTT1=
EXTT2=
EXTT3=
EXTT4=
EXTT5=
EXTT6=
EXTT7=
EXTT8=
EXTT9=
EXTT10=
EXTT11=
EXTT12=
EXTT13=
PLAYORDER=
